<svg width="930" height="1032" viewBox="0 0 930 1032" fill="none" xmlns="http://www.w3.org/2000/svg">
<g clip-path="url(#clip0)" filter="url(#filter0_bd)">
<g filter="url(#filter1_d)">
<path d="M174.625 878.593L402.125 146.432L174.625 147.559C-52.8751 146.432 -52.8749 0 174.625 0L743.375 2.2779e-06C970.875 -6.64723e-05 970.875 146.432 743.375 146.432H515.875L743.375 878.593C743.375 878.593 606.875 878.593 629.625 732.161C652.375 585.729 424.875 732.161 515.875 585.729C606.875 439.296 288.375 878.593 288.375 878.593C148.257 1063 113.441 1081.71 174.625 878.593Z" fill="#DED056" fill-opacity="0.6"/>
<path d="M174.625 878.593L402.125 146.432L174.625 147.559C-52.8751 146.432 -52.8749 0 174.625 0L743.375 2.2779e-06C970.875 -6.64723e-05 970.875 146.432 743.375 146.432H515.875L743.375 878.593C743.375 878.593 606.875 878.593 629.625 732.161C652.375 585.729 424.875 732.161 515.875 585.729C606.875 439.296 288.375 878.593 288.375 878.593C148.257 1063 113.441 1081.71 174.625 878.593Z" fill="url(#paint0_linear)"/>
<g filter="url(#filter2_d)">
<path d="M358.932 892.386H348.043V922H340.719V892.386H329.977V886.453H358.932V892.386ZM369.552 898.465C371.424 896.219 373.775 895.096 376.607 895.096C382.337 895.096 385.242 898.424 385.323 905.081V922H378.268V905.276C378.268 903.763 377.942 902.648 377.291 901.932C376.64 901.199 375.558 900.833 374.044 900.833C371.977 900.833 370.479 901.631 369.552 903.226V922H362.496V884.5H369.552V898.465ZM398.092 922H391.012V895.584H398.092V922ZM390.597 888.748C390.597 887.69 390.947 886.819 391.646 886.136C392.363 885.452 393.331 885.11 394.552 885.11C395.756 885.11 396.716 885.452 397.433 886.136C398.149 886.819 398.507 887.69 398.507 888.748C398.507 889.822 398.141 890.701 397.408 891.385C396.692 892.068 395.74 892.41 394.552 892.41C393.364 892.41 392.403 892.068 391.671 891.385C390.955 890.701 390.597 889.822 390.597 888.748ZM402.828 908.597C402.828 904.479 403.748 901.199 405.587 898.758C407.442 896.316 409.973 895.096 413.18 895.096C415.751 895.096 417.875 896.056 419.552 897.977V884.5H426.632V922H420.26L419.918 919.192C418.16 921.39 415.898 922.488 413.131 922.488C410.022 922.488 407.524 921.268 405.636 918.826C403.764 916.368 402.828 912.959 402.828 908.597ZM409.884 909.109C409.884 911.583 410.315 913.479 411.178 914.798C412.04 916.116 413.294 916.775 414.938 916.775C417.118 916.775 418.657 915.856 419.552 914.017V903.592C418.673 901.753 417.151 900.833 414.986 900.833C411.585 900.833 409.884 903.592 409.884 909.109ZM439.571 895.584V923.44C439.571 926.354 438.798 928.616 437.252 930.228C435.706 931.855 433.476 932.669 430.562 932.669C429.342 932.669 428.178 932.531 427.071 932.254V926.663C427.918 926.81 428.658 926.883 429.293 926.883C431.425 926.883 432.491 925.752 432.491 923.489V895.584H439.571ZM431.93 888.748C431.93 887.69 432.28 886.819 432.979 886.136C433.696 885.452 434.664 885.11 435.885 885.11C437.105 885.11 438.066 885.452 438.766 886.136C439.482 886.819 439.84 887.69 439.84 888.748C439.84 889.822 439.474 890.701 438.741 891.385C438.025 892.068 437.073 892.41 435.885 892.41C434.697 892.41 433.736 892.068 433.004 891.385C432.288 890.701 431.93 889.822 431.93 888.748ZM460.396 922C460.071 921.365 459.835 920.576 459.688 919.632C457.979 921.536 455.758 922.488 453.023 922.488C450.436 922.488 448.287 921.74 446.578 920.242C444.885 918.745 444.039 916.857 444.039 914.578C444.039 911.779 445.073 909.63 447.14 908.133C449.223 906.635 452.226 905.879 456.148 905.862H459.396V904.349C459.396 903.128 459.078 902.151 458.443 901.419C457.825 900.687 456.84 900.32 455.489 900.32C454.301 900.32 453.365 900.605 452.682 901.175C452.014 901.744 451.681 902.526 451.681 903.519H444.625C444.625 901.989 445.097 900.573 446.041 899.271C446.985 897.968 448.32 896.951 450.045 896.219C451.77 895.47 453.707 895.096 455.855 895.096C459.111 895.096 461.69 895.918 463.595 897.562C465.515 899.189 466.476 901.484 466.476 904.446V915.896C466.492 918.403 466.842 920.299 467.525 921.585V922H460.396ZM454.562 917.093C455.603 917.093 456.563 916.865 457.442 916.409C458.321 915.937 458.972 915.311 459.396 914.529V909.988H456.759C453.227 909.988 451.347 911.209 451.119 913.65L451.095 914.065C451.095 914.944 451.404 915.669 452.022 916.238C452.641 916.808 453.487 917.093 454.562 917.093ZM478.39 895.584L478.609 898.636C480.497 896.276 483.028 895.096 486.202 895.096C489.002 895.096 491.085 895.918 492.452 897.562C493.819 899.205 494.519 901.663 494.552 904.935V922H487.496V905.105C487.496 903.608 487.171 902.526 486.52 901.858C485.868 901.175 484.786 900.833 483.272 900.833C481.287 900.833 479.798 901.679 478.805 903.372V922H471.749V895.584H478.39ZM498.897 908.597C498.897 904.544 499.858 901.281 501.778 898.807C503.715 896.333 506.319 895.096 509.591 895.096C512.488 895.096 514.742 896.089 516.354 898.074L516.646 895.584H523.043V921.121C523.043 923.432 522.514 925.442 521.456 927.151C520.414 928.86 518.941 930.162 517.037 931.058C515.133 931.953 512.903 932.4 510.348 932.4C508.411 932.4 506.523 932.01 504.684 931.229C502.844 930.464 501.453 929.471 500.509 928.25L503.634 923.953C505.392 925.923 507.524 926.907 510.03 926.907C511.902 926.907 513.359 926.403 514.4 925.394C515.442 924.401 515.963 922.985 515.963 921.146V919.729C514.335 921.569 512.195 922.488 509.542 922.488C506.368 922.488 503.797 921.251 501.827 918.777C499.874 916.287 498.897 912.991 498.897 908.89V908.597ZM505.953 909.109C505.953 911.502 506.433 913.382 507.394 914.749C508.354 916.1 509.672 916.775 511.349 916.775C513.497 916.775 515.035 915.97 515.963 914.358V903.25C515.019 901.639 513.497 900.833 511.397 900.833C509.705 900.833 508.37 901.525 507.394 902.908C506.433 904.292 505.953 906.359 505.953 909.109ZM527.389 908.548C527.389 905.927 527.893 903.592 528.902 901.541C529.911 899.49 531.36 897.903 533.248 896.78C535.152 895.657 537.358 895.096 539.864 895.096C543.429 895.096 546.334 896.186 548.58 898.367C550.842 900.548 552.104 903.51 552.364 907.254L552.413 909.061C552.413 913.113 551.282 916.368 549.02 918.826C546.757 921.268 543.722 922.488 539.913 922.488C536.104 922.488 533.061 921.268 530.782 918.826C528.52 916.385 527.389 913.064 527.389 908.865V908.548ZM534.444 909.061C534.444 911.567 534.916 913.488 535.86 914.822C536.804 916.141 538.155 916.8 539.913 916.8C541.622 916.8 542.957 916.149 543.917 914.847C544.877 913.528 545.357 911.429 545.357 908.548C545.357 906.09 544.877 904.186 543.917 902.835C542.957 901.484 541.606 900.809 539.864 900.809C538.139 900.809 536.804 901.484 535.86 902.835C534.916 904.17 534.444 906.245 534.444 909.061ZM589.742 914.676H576.9L574.459 922H566.671L579.903 886.453H586.69L599.996 922H592.208L589.742 914.676ZM578.878 908.743H587.765L583.297 895.438L578.878 908.743ZM601.754 908.597C601.754 904.479 602.674 901.199 604.513 898.758C606.368 896.316 608.899 895.096 612.105 895.096C614.677 895.096 616.801 896.056 618.478 897.977V884.5H625.558V922H619.186L618.844 919.192C617.086 921.39 614.824 922.488 612.057 922.488C608.948 922.488 606.45 921.268 604.562 918.826C602.69 916.368 601.754 912.959 601.754 908.597ZM608.81 909.109C608.81 911.583 609.241 913.479 610.104 914.798C610.966 916.116 612.219 916.775 613.863 916.775C616.044 916.775 617.582 915.856 618.478 914.017V903.592C617.599 901.753 616.077 900.833 613.912 900.833C610.51 900.833 608.81 903.592 608.81 909.109ZM637.643 895.584L637.862 898.538C639.734 896.243 642.265 895.096 645.455 895.096C648.857 895.096 651.192 896.438 652.462 899.124C654.317 896.438 656.962 895.096 660.396 895.096C663.261 895.096 665.393 895.934 666.793 897.61C668.193 899.271 668.893 901.777 668.893 905.13V922H661.812V905.154C661.812 903.657 661.52 902.566 660.934 901.883C660.348 901.183 659.314 900.833 657.833 900.833C655.717 900.833 654.252 901.842 653.438 903.86L653.463 922H646.407V905.179C646.407 903.649 646.106 902.542 645.504 901.858C644.902 901.175 643.876 900.833 642.428 900.833C640.426 900.833 638.977 901.663 638.082 903.323V922H631.026V895.584H637.643ZM681.783 922H674.703V895.584H681.783V922ZM674.288 888.748C674.288 887.69 674.638 886.819 675.338 886.136C676.054 885.452 677.022 885.11 678.243 885.11C679.448 885.11 680.408 885.452 681.124 886.136C681.84 886.819 682.198 887.69 682.198 888.748C682.198 889.822 681.832 890.701 681.1 891.385C680.383 892.068 679.431 892.41 678.243 892.41C677.055 892.41 676.095 892.068 675.362 891.385C674.646 890.701 674.288 889.822 674.288 888.748ZM694.112 895.584L694.332 898.636C696.22 896.276 698.751 895.096 701.925 895.096C704.724 895.096 706.808 895.918 708.175 897.562C709.542 899.205 710.242 901.663 710.274 904.935V922H703.219V905.105C703.219 903.608 702.893 902.526 702.242 901.858C701.591 901.175 700.509 900.833 698.995 900.833C697.009 900.833 695.52 901.679 694.527 903.372V922H687.472V895.584H694.112ZM332.174 981V945.453H343.111C346.236 945.453 349.028 946.161 351.485 947.577C353.959 948.977 355.888 950.979 357.271 953.583C358.655 956.171 359.347 959.117 359.347 962.421V964.057C359.347 967.361 358.663 970.299 357.296 972.87C355.945 975.442 354.033 977.436 351.559 978.852C349.085 980.268 346.293 980.984 343.185 981H332.174ZM339.498 951.386V975.116H343.038C345.903 975.116 348.092 974.18 349.605 972.309C351.119 970.437 351.892 967.759 351.925 964.276V962.396C351.925 958.783 351.176 956.049 349.679 954.193C348.181 952.322 345.992 951.386 343.111 951.386H339.498ZM379.537 981C379.212 980.365 378.976 979.576 378.829 978.632C377.12 980.536 374.898 981.488 372.164 981.488C369.576 981.488 367.428 980.74 365.719 979.242C364.026 977.745 363.18 975.857 363.18 973.578C363.18 970.779 364.213 968.63 366.28 967.133C368.364 965.635 371.367 964.879 375.289 964.862H378.536V963.349C378.536 962.128 378.219 961.151 377.584 960.419C376.965 959.687 375.981 959.32 374.63 959.32C373.442 959.32 372.506 959.605 371.822 960.175C371.155 960.744 370.821 961.526 370.821 962.519H363.766C363.766 960.989 364.238 959.573 365.182 958.271C366.126 956.968 367.46 955.951 369.186 955.219C370.911 954.47 372.848 954.096 374.996 954.096C378.251 954.096 380.831 954.918 382.735 956.562C384.656 958.189 385.616 960.484 385.616 963.446V974.896C385.632 977.403 385.982 979.299 386.666 980.585V981H379.537ZM373.702 976.093C374.744 976.093 375.704 975.865 376.583 975.409C377.462 974.937 378.113 974.311 378.536 973.529V968.988H375.899C372.368 968.988 370.488 970.209 370.26 972.65L370.235 973.065C370.235 973.944 370.545 974.669 371.163 975.238C371.782 975.808 372.628 976.093 373.702 976.093ZM405.343 973.7C405.343 972.838 404.911 972.162 404.049 971.674C403.202 971.169 401.835 970.722 399.947 970.331C393.665 969.013 390.523 966.343 390.523 962.323C390.523 959.979 391.492 958.026 393.429 956.464C395.382 954.885 397.929 954.096 401.07 954.096C404.423 954.096 407.101 954.885 409.103 956.464C411.121 958.043 412.13 960.093 412.13 962.616H405.074C405.074 961.607 404.749 960.777 404.098 960.126C403.447 959.459 402.429 959.125 401.046 959.125C399.858 959.125 398.938 959.394 398.287 959.931C397.636 960.468 397.311 961.151 397.311 961.981C397.311 962.763 397.677 963.397 398.409 963.886C399.158 964.358 400.411 964.773 402.169 965.131C403.927 965.473 405.408 965.863 406.612 966.303C410.34 967.67 412.203 970.038 412.203 973.407C412.203 975.816 411.17 977.769 409.103 979.267C407.035 980.748 404.366 981.488 401.095 981.488C398.881 981.488 396.912 981.098 395.187 980.316C393.478 979.519 392.135 978.437 391.158 977.069C390.182 975.686 389.693 974.197 389.693 972.602H396.383C396.448 973.855 396.912 974.815 397.774 975.482C398.637 976.15 399.793 976.483 401.241 976.483C402.592 976.483 403.609 976.231 404.293 975.727C404.993 975.206 405.343 974.53 405.343 973.7ZM423.653 957.465C425.525 955.219 427.877 954.096 430.709 954.096C436.438 954.096 439.343 957.424 439.425 964.081V981H432.369V964.276C432.369 962.763 432.044 961.648 431.393 960.932C430.742 960.199 429.659 959.833 428.146 959.833C426.078 959.833 424.581 960.631 423.653 962.226V981H416.598V943.5H423.653V957.465ZM468.551 968.036C468.551 972.268 467.647 975.572 465.841 977.948C464.034 980.308 461.511 981.488 458.272 981.488C455.408 981.488 453.121 980.39 451.412 978.192L451.095 981H444.747V943.5H451.803V956.952C453.43 955.048 455.571 954.096 458.224 954.096C461.446 954.096 463.969 955.284 465.792 957.66C467.631 960.02 468.551 963.349 468.551 967.646V968.036ZM461.495 967.523C461.495 964.854 461.072 962.909 460.226 961.688C459.379 960.451 458.118 959.833 456.441 959.833C454.195 959.833 452.649 960.753 451.803 962.592V973.017C452.665 974.872 454.228 975.8 456.49 975.8C458.769 975.8 460.266 974.677 460.982 972.431C461.324 971.356 461.495 969.721 461.495 967.523ZM471.822 967.548C471.822 964.927 472.327 962.592 473.336 960.541C474.345 958.49 475.794 956.903 477.682 955.78C479.586 954.657 481.791 954.096 484.298 954.096C487.862 954.096 490.768 955.186 493.014 957.367C495.276 959.548 496.537 962.51 496.798 966.254L496.847 968.061C496.847 972.113 495.715 975.368 493.453 977.826C491.191 980.268 488.155 981.488 484.347 981.488C480.538 981.488 477.494 980.268 475.216 977.826C472.953 975.385 471.822 972.064 471.822 967.865V967.548ZM478.878 968.061C478.878 970.567 479.35 972.488 480.294 973.822C481.238 975.141 482.589 975.8 484.347 975.8C486.056 975.8 487.39 975.149 488.351 973.847C489.311 972.528 489.791 970.429 489.791 967.548C489.791 965.09 489.311 963.186 488.351 961.835C487.39 960.484 486.039 959.809 484.298 959.809C482.573 959.809 481.238 960.484 480.294 961.835C479.35 963.17 478.878 965.245 478.878 968.061ZM516.5 981C516.174 980.365 515.938 979.576 515.792 978.632C514.083 980.536 511.861 981.488 509.127 981.488C506.539 981.488 504.391 980.74 502.682 979.242C500.989 977.745 500.143 975.857 500.143 973.578C500.143 970.779 501.176 968.63 503.243 967.133C505.326 965.635 508.329 964.879 512.252 964.862H515.499V963.349C515.499 962.128 515.182 961.151 514.547 960.419C513.928 959.687 512.944 959.32 511.593 959.32C510.405 959.32 509.469 959.605 508.785 960.175C508.118 960.744 507.784 961.526 507.784 962.519H500.729C500.729 960.989 501.201 959.573 502.145 958.271C503.089 956.968 504.423 955.951 506.148 955.219C507.874 954.47 509.811 954.096 511.959 954.096C515.214 954.096 517.794 954.918 519.698 956.562C521.619 958.189 522.579 960.484 522.579 963.446V974.896C522.595 977.403 522.945 979.299 523.629 980.585V981H516.5ZM510.665 976.093C511.707 976.093 512.667 975.865 513.546 975.409C514.425 974.937 515.076 974.311 515.499 973.529V968.988H512.862C509.33 968.988 507.451 970.209 507.223 972.65L507.198 973.065C507.198 973.944 507.507 974.669 508.126 975.238C508.744 975.808 509.591 976.093 510.665 976.093ZM542.843 961.2C541.882 961.07 541.036 961.005 540.304 961.005C537.634 961.005 535.885 961.908 535.055 963.715V981H527.999V954.584H534.664L534.859 957.733C536.275 955.308 538.237 954.096 540.743 954.096C541.524 954.096 542.257 954.201 542.94 954.413L542.843 961.2ZM544.674 967.597C544.674 963.479 545.593 960.199 547.433 957.758C549.288 955.316 551.819 954.096 555.025 954.096C557.597 954.096 559.721 955.056 561.397 956.977V943.5H568.478V981H562.105L561.764 978.192C560.006 980.39 557.743 981.488 554.977 981.488C551.868 981.488 549.369 980.268 547.481 977.826C545.61 975.368 544.674 971.959 544.674 967.597ZM551.729 968.109C551.729 970.583 552.161 972.479 553.023 973.798C553.886 975.116 555.139 975.775 556.783 975.775C558.964 975.775 560.502 974.856 561.397 973.017V962.592C560.519 960.753 558.997 959.833 556.832 959.833C553.43 959.833 551.729 962.592 551.729 968.109Z" fill="#192D73"/>
<path d="M358.932 892.386H348.043V922H340.719V892.386H329.977V886.453H358.932V892.386ZM369.552 898.465C371.424 896.219 373.775 895.096 376.607 895.096C382.337 895.096 385.242 898.424 385.323 905.081V922H378.268V905.276C378.268 903.763 377.942 902.648 377.291 901.932C376.64 901.199 375.558 900.833 374.044 900.833C371.977 900.833 370.479 901.631 369.552 903.226V922H362.496V884.5H369.552V898.465ZM398.092 922H391.012V895.584H398.092V922ZM390.597 888.748C390.597 887.69 390.947 886.819 391.646 886.136C392.363 885.452 393.331 885.11 394.552 885.11C395.756 885.11 396.716 885.452 397.433 886.136C398.149 886.819 398.507 887.69 398.507 888.748C398.507 889.822 398.141 890.701 397.408 891.385C396.692 892.068 395.74 892.41 394.552 892.41C393.364 892.41 392.403 892.068 391.671 891.385C390.955 890.701 390.597 889.822 390.597 888.748ZM402.828 908.597C402.828 904.479 403.748 901.199 405.587 898.758C407.442 896.316 409.973 895.096 413.18 895.096C415.751 895.096 417.875 896.056 419.552 897.977V884.5H426.632V922H420.26L419.918 919.192C418.16 921.39 415.898 922.488 413.131 922.488C410.022 922.488 407.524 921.268 405.636 918.826C403.764 916.368 402.828 912.959 402.828 908.597ZM409.884 909.109C409.884 911.583 410.315 913.479 411.178 914.798C412.04 916.116 413.294 916.775 414.938 916.775C417.118 916.775 418.657 915.856 419.552 914.017V903.592C418.673 901.753 417.151 900.833 414.986 900.833C411.585 900.833 409.884 903.592 409.884 909.109ZM439.571 895.584V923.44C439.571 926.354 438.798 928.616 437.252 930.228C435.706 931.855 433.476 932.669 430.562 932.669C429.342 932.669 428.178 932.531 427.071 932.254V926.663C427.918 926.81 428.658 926.883 429.293 926.883C431.425 926.883 432.491 925.752 432.491 923.489V895.584H439.571ZM431.93 888.748C431.93 887.69 432.28 886.819 432.979 886.136C433.696 885.452 434.664 885.11 435.885 885.11C437.105 885.11 438.066 885.452 438.766 886.136C439.482 886.819 439.84 887.69 439.84 888.748C439.84 889.822 439.474 890.701 438.741 891.385C438.025 892.068 437.073 892.41 435.885 892.41C434.697 892.41 433.736 892.068 433.004 891.385C432.288 890.701 431.93 889.822 431.93 888.748ZM460.396 922C460.071 921.365 459.835 920.576 459.688 919.632C457.979 921.536 455.758 922.488 453.023 922.488C450.436 922.488 448.287 921.74 446.578 920.242C444.885 918.745 444.039 916.857 444.039 914.578C444.039 911.779 445.073 909.63 447.14 908.133C449.223 906.635 452.226 905.879 456.148 905.862H459.396V904.349C459.396 903.128 459.078 902.151 458.443 901.419C457.825 900.687 456.84 900.32 455.489 900.32C454.301 900.32 453.365 900.605 452.682 901.175C452.014 901.744 451.681 902.526 451.681 903.519H444.625C444.625 901.989 445.097 900.573 446.041 899.271C446.985 897.968 448.32 896.951 450.045 896.219C451.77 895.47 453.707 895.096 455.855 895.096C459.111 895.096 461.69 895.918 463.595 897.562C465.515 899.189 466.476 901.484 466.476 904.446V915.896C466.492 918.403 466.842 920.299 467.525 921.585V922H460.396ZM454.562 917.093C455.603 917.093 456.563 916.865 457.442 916.409C458.321 915.937 458.972 915.311 459.396 914.529V909.988H456.759C453.227 909.988 451.347 911.209 451.119 913.65L451.095 914.065C451.095 914.944 451.404 915.669 452.022 916.238C452.641 916.808 453.487 917.093 454.562 917.093ZM478.39 895.584L478.609 898.636C480.497 896.276 483.028 895.096 486.202 895.096C489.002 895.096 491.085 895.918 492.452 897.562C493.819 899.205 494.519 901.663 494.552 904.935V922H487.496V905.105C487.496 903.608 487.171 902.526 486.52 901.858C485.868 901.175 484.786 900.833 483.272 900.833C481.287 900.833 479.798 901.679 478.805 903.372V922H471.749V895.584H478.39ZM498.897 908.597C498.897 904.544 499.858 901.281 501.778 898.807C503.715 896.333 506.319 895.096 509.591 895.096C512.488 895.096 514.742 896.089 516.354 898.074L516.646 895.584H523.043V921.121C523.043 923.432 522.514 925.442 521.456 927.151C520.414 928.86 518.941 930.162 517.037 931.058C515.133 931.953 512.903 932.4 510.348 932.4C508.411 932.4 506.523 932.01 504.684 931.229C502.844 930.464 501.453 929.471 500.509 928.25L503.634 923.953C505.392 925.923 507.524 926.907 510.03 926.907C511.902 926.907 513.359 926.403 514.4 925.394C515.442 924.401 515.963 922.985 515.963 921.146V919.729C514.335 921.569 512.195 922.488 509.542 922.488C506.368 922.488 503.797 921.251 501.827 918.777C499.874 916.287 498.897 912.991 498.897 908.89V908.597ZM505.953 909.109C505.953 911.502 506.433 913.382 507.394 914.749C508.354 916.1 509.672 916.775 511.349 916.775C513.497 916.775 515.035 915.97 515.963 914.358V903.25C515.019 901.639 513.497 900.833 511.397 900.833C509.705 900.833 508.37 901.525 507.394 902.908C506.433 904.292 505.953 906.359 505.953 909.109ZM527.389 908.548C527.389 905.927 527.893 903.592 528.902 901.541C529.911 899.49 531.36 897.903 533.248 896.78C535.152 895.657 537.358 895.096 539.864 895.096C543.429 895.096 546.334 896.186 548.58 898.367C550.842 900.548 552.104 903.51 552.364 907.254L552.413 909.061C552.413 913.113 551.282 916.368 549.02 918.826C546.757 921.268 543.722 922.488 539.913 922.488C536.104 922.488 533.061 921.268 530.782 918.826C528.52 916.385 527.389 913.064 527.389 908.865V908.548ZM534.444 909.061C534.444 911.567 534.916 913.488 535.86 914.822C536.804 916.141 538.155 916.8 539.913 916.8C541.622 916.8 542.957 916.149 543.917 914.847C544.877 913.528 545.357 911.429 545.357 908.548C545.357 906.09 544.877 904.186 543.917 902.835C542.957 901.484 541.606 900.809 539.864 900.809C538.139 900.809 536.804 901.484 535.86 902.835C534.916 904.17 534.444 906.245 534.444 909.061ZM589.742 914.676H576.9L574.459 922H566.671L579.903 886.453H586.69L599.996 922H592.208L589.742 914.676ZM578.878 908.743H587.765L583.297 895.438L578.878 908.743ZM601.754 908.597C601.754 904.479 602.674 901.199 604.513 898.758C606.368 896.316 608.899 895.096 612.105 895.096C614.677 895.096 616.801 896.056 618.478 897.977V884.5H625.558V922H619.186L618.844 919.192C617.086 921.39 614.824 922.488 612.057 922.488C608.948 922.488 606.45 921.268 604.562 918.826C602.69 916.368 601.754 912.959 601.754 908.597ZM608.81 909.109C608.81 911.583 609.241 913.479 610.104 914.798C610.966 916.116 612.219 916.775 613.863 916.775C616.044 916.775 617.582 915.856 618.478 914.017V903.592C617.599 901.753 616.077 900.833 613.912 900.833C610.51 900.833 608.81 903.592 608.81 909.109ZM637.643 895.584L637.862 898.538C639.734 896.243 642.265 895.096 645.455 895.096C648.857 895.096 651.192 896.438 652.462 899.124C654.317 896.438 656.962 895.096 660.396 895.096C663.261 895.096 665.393 895.934 666.793 897.61C668.193 899.271 668.893 901.777 668.893 905.13V922H661.812V905.154C661.812 903.657 661.52 902.566 660.934 901.883C660.348 901.183 659.314 900.833 657.833 900.833C655.717 900.833 654.252 901.842 653.438 903.86L653.463 922H646.407V905.179C646.407 903.649 646.106 902.542 645.504 901.858C644.902 901.175 643.876 900.833 642.428 900.833C640.426 900.833 638.977 901.663 638.082 903.323V922H631.026V895.584H637.643ZM681.783 922H674.703V895.584H681.783V922ZM674.288 888.748C674.288 887.69 674.638 886.819 675.338 886.136C676.054 885.452 677.022 885.11 678.243 885.11C679.448 885.11 680.408 885.452 681.124 886.136C681.84 886.819 682.198 887.69 682.198 888.748C682.198 889.822 681.832 890.701 681.1 891.385C680.383 892.068 679.431 892.41 678.243 892.41C677.055 892.41 676.095 892.068 675.362 891.385C674.646 890.701 674.288 889.822 674.288 888.748ZM694.112 895.584L694.332 898.636C696.22 896.276 698.751 895.096 701.925 895.096C704.724 895.096 706.808 895.918 708.175 897.562C709.542 899.205 710.242 901.663 710.274 904.935V922H703.219V905.105C703.219 903.608 702.893 902.526 702.242 901.858C701.591 901.175 700.509 900.833 698.995 900.833C697.009 900.833 695.52 901.679 694.527 903.372V922H687.472V895.584H694.112ZM332.174 981V945.453H343.111C346.236 945.453 349.028 946.161 351.485 947.577C353.959 948.977 355.888 950.979 357.271 953.583C358.655 956.171 359.347 959.117 359.347 962.421V964.057C359.347 967.361 358.663 970.299 357.296 972.87C355.945 975.442 354.033 977.436 351.559 978.852C349.085 980.268 346.293 980.984 343.185 981H332.174ZM339.498 951.386V975.116H343.038C345.903 975.116 348.092 974.18 349.605 972.309C351.119 970.437 351.892 967.759 351.925 964.276V962.396C351.925 958.783 351.176 956.049 349.679 954.193C348.181 952.322 345.992 951.386 343.111 951.386H339.498ZM379.537 981C379.212 980.365 378.976 979.576 378.829 978.632C377.12 980.536 374.898 981.488 372.164 981.488C369.576 981.488 367.428 980.74 365.719 979.242C364.026 977.745 363.18 975.857 363.18 973.578C363.18 970.779 364.213 968.63 366.28 967.133C368.364 965.635 371.367 964.879 375.289 964.862H378.536V963.349C378.536 962.128 378.219 961.151 377.584 960.419C376.965 959.687 375.981 959.32 374.63 959.32C373.442 959.32 372.506 959.605 371.822 960.175C371.155 960.744 370.821 961.526 370.821 962.519H363.766C363.766 960.989 364.238 959.573 365.182 958.271C366.126 956.968 367.46 955.951 369.186 955.219C370.911 954.47 372.848 954.096 374.996 954.096C378.251 954.096 380.831 954.918 382.735 956.562C384.656 958.189 385.616 960.484 385.616 963.446V974.896C385.632 977.403 385.982 979.299 386.666 980.585V981H379.537ZM373.702 976.093C374.744 976.093 375.704 975.865 376.583 975.409C377.462 974.937 378.113 974.311 378.536 973.529V968.988H375.899C372.368 968.988 370.488 970.209 370.26 972.65L370.235 973.065C370.235 973.944 370.545 974.669 371.163 975.238C371.782 975.808 372.628 976.093 373.702 976.093ZM405.343 973.7C405.343 972.838 404.911 972.162 404.049 971.674C403.202 971.169 401.835 970.722 399.947 970.331C393.665 969.013 390.523 966.343 390.523 962.323C390.523 959.979 391.492 958.026 393.429 956.464C395.382 954.885 397.929 954.096 401.07 954.096C404.423 954.096 407.101 954.885 409.103 956.464C411.121 958.043 412.13 960.093 412.13 962.616H405.074C405.074 961.607 404.749 960.777 404.098 960.126C403.447 959.459 402.429 959.125 401.046 959.125C399.858 959.125 398.938 959.394 398.287 959.931C397.636 960.468 397.311 961.151 397.311 961.981C397.311 962.763 397.677 963.397 398.409 963.886C399.158 964.358 400.411 964.773 402.169 965.131C403.927 965.473 405.408 965.863 406.612 966.303C410.34 967.67 412.203 970.038 412.203 973.407C412.203 975.816 411.17 977.769 409.103 979.267C407.035 980.748 404.366 981.488 401.095 981.488C398.881 981.488 396.912 981.098 395.187 980.316C393.478 979.519 392.135 978.437 391.158 977.069C390.182 975.686 389.693 974.197 389.693 972.602H396.383C396.448 973.855 396.912 974.815 397.774 975.482C398.637 976.15 399.793 976.483 401.241 976.483C402.592 976.483 403.609 976.231 404.293 975.727C404.993 975.206 405.343 974.53 405.343 973.7ZM423.653 957.465C425.525 955.219 427.877 954.096 430.709 954.096C436.438 954.096 439.343 957.424 439.425 964.081V981H432.369V964.276C432.369 962.763 432.044 961.648 431.393 960.932C430.742 960.199 429.659 959.833 428.146 959.833C426.078 959.833 424.581 960.631 423.653 962.226V981H416.598V943.5H423.653V957.465ZM468.551 968.036C468.551 972.268 467.647 975.572 465.841 977.948C464.034 980.308 461.511 981.488 458.272 981.488C455.408 981.488 453.121 980.39 451.412 978.192L451.095 981H444.747V943.5H451.803V956.952C453.43 955.048 455.571 954.096 458.224 954.096C461.446 954.096 463.969 955.284 465.792 957.66C467.631 960.02 468.551 963.349 468.551 967.646V968.036ZM461.495 967.523C461.495 964.854 461.072 962.909 460.226 961.688C459.379 960.451 458.118 959.833 456.441 959.833C454.195 959.833 452.649 960.753 451.803 962.592V973.017C452.665 974.872 454.228 975.8 456.49 975.8C458.769 975.8 460.266 974.677 460.982 972.431C461.324 971.356 461.495 969.721 461.495 967.523ZM471.822 967.548C471.822 964.927 472.327 962.592 473.336 960.541C474.345 958.49 475.794 956.903 477.682 955.78C479.586 954.657 481.791 954.096 484.298 954.096C487.862 954.096 490.768 955.186 493.014 957.367C495.276 959.548 496.537 962.51 496.798 966.254L496.847 968.061C496.847 972.113 495.715 975.368 493.453 977.826C491.191 980.268 488.155 981.488 484.347 981.488C480.538 981.488 477.494 980.268 475.216 977.826C472.953 975.385 471.822 972.064 471.822 967.865V967.548ZM478.878 968.061C478.878 970.567 479.35 972.488 480.294 973.822C481.238 975.141 482.589 975.8 484.347 975.8C486.056 975.8 487.39 975.149 488.351 973.847C489.311 972.528 489.791 970.429 489.791 967.548C489.791 965.09 489.311 963.186 488.351 961.835C487.39 960.484 486.039 959.809 484.298 959.809C482.573 959.809 481.238 960.484 480.294 961.835C479.35 963.17 478.878 965.245 478.878 968.061ZM516.5 981C516.174 980.365 515.938 979.576 515.792 978.632C514.083 980.536 511.861 981.488 509.127 981.488C506.539 981.488 504.391 980.74 502.682 979.242C500.989 977.745 500.143 975.857 500.143 973.578C500.143 970.779 501.176 968.63 503.243 967.133C505.326 965.635 508.329 964.879 512.252 964.862H515.499V963.349C515.499 962.128 515.182 961.151 514.547 960.419C513.928 959.687 512.944 959.32 511.593 959.32C510.405 959.32 509.469 959.605 508.785 960.175C508.118 960.744 507.784 961.526 507.784 962.519H500.729C500.729 960.989 501.201 959.573 502.145 958.271C503.089 956.968 504.423 955.951 506.148 955.219C507.874 954.47 509.811 954.096 511.959 954.096C515.214 954.096 517.794 954.918 519.698 956.562C521.619 958.189 522.579 960.484 522.579 963.446V974.896C522.595 977.403 522.945 979.299 523.629 980.585V981H516.5ZM510.665 976.093C511.707 976.093 512.667 975.865 513.546 975.409C514.425 974.937 515.076 974.311 515.499 973.529V968.988H512.862C509.33 968.988 507.451 970.209 507.223 972.65L507.198 973.065C507.198 973.944 507.507 974.669 508.126 975.238C508.744 975.808 509.591 976.093 510.665 976.093ZM542.843 961.2C541.882 961.07 541.036 961.005 540.304 961.005C537.634 961.005 535.885 961.908 535.055 963.715V981H527.999V954.584H534.664L534.859 957.733C536.275 955.308 538.237 954.096 540.743 954.096C541.524 954.096 542.257 954.201 542.94 954.413L542.843 961.2ZM544.674 967.597C544.674 963.479 545.593 960.199 547.433 957.758C549.288 955.316 551.819 954.096 555.025 954.096C557.597 954.096 559.721 955.056 561.397 956.977V943.5H568.478V981H562.105L561.764 978.192C560.006 980.39 557.743 981.488 554.977 981.488C551.868 981.488 549.369 980.268 547.481 977.826C545.61 975.368 544.674 971.959 544.674 967.597ZM551.729 968.109C551.729 970.583 552.161 972.479 553.023 973.798C553.886 975.116 555.139 975.775 556.783 975.775C558.964 975.775 560.502 974.856 561.397 973.017V962.592C560.519 960.753 558.997 959.833 556.832 959.833C553.43 959.833 551.729 962.592 551.729 968.109Z" fill="url(#paint1_linear)"/>
<path d="M358.932 892.386H348.043V922H340.719V892.386H329.977V886.453H358.932V892.386ZM369.552 898.465C371.424 896.219 373.775 895.096 376.607 895.096C382.337 895.096 385.242 898.424 385.323 905.081V922H378.268V905.276C378.268 903.763 377.942 902.648 377.291 901.932C376.64 901.199 375.558 900.833 374.044 900.833C371.977 900.833 370.479 901.631 369.552 903.226V922H362.496V884.5H369.552V898.465ZM398.092 922H391.012V895.584H398.092V922ZM390.597 888.748C390.597 887.69 390.947 886.819 391.646 886.136C392.363 885.452 393.331 885.11 394.552 885.11C395.756 885.11 396.716 885.452 397.433 886.136C398.149 886.819 398.507 887.69 398.507 888.748C398.507 889.822 398.141 890.701 397.408 891.385C396.692 892.068 395.74 892.41 394.552 892.41C393.364 892.41 392.403 892.068 391.671 891.385C390.955 890.701 390.597 889.822 390.597 888.748ZM402.828 908.597C402.828 904.479 403.748 901.199 405.587 898.758C407.442 896.316 409.973 895.096 413.18 895.096C415.751 895.096 417.875 896.056 419.552 897.977V884.5H426.632V922H420.26L419.918 919.192C418.16 921.39 415.898 922.488 413.131 922.488C410.022 922.488 407.524 921.268 405.636 918.826C403.764 916.368 402.828 912.959 402.828 908.597ZM409.884 909.109C409.884 911.583 410.315 913.479 411.178 914.798C412.04 916.116 413.294 916.775 414.938 916.775C417.118 916.775 418.657 915.856 419.552 914.017V903.592C418.673 901.753 417.151 900.833 414.986 900.833C411.585 900.833 409.884 903.592 409.884 909.109ZM439.571 895.584V923.44C439.571 926.354 438.798 928.616 437.252 930.228C435.706 931.855 433.476 932.669 430.562 932.669C429.342 932.669 428.178 932.531 427.071 932.254V926.663C427.918 926.81 428.658 926.883 429.293 926.883C431.425 926.883 432.491 925.752 432.491 923.489V895.584H439.571ZM431.93 888.748C431.93 887.69 432.28 886.819 432.979 886.136C433.696 885.452 434.664 885.11 435.885 885.11C437.105 885.11 438.066 885.452 438.766 886.136C439.482 886.819 439.84 887.69 439.84 888.748C439.84 889.822 439.474 890.701 438.741 891.385C438.025 892.068 437.073 892.41 435.885 892.41C434.697 892.41 433.736 892.068 433.004 891.385C432.288 890.701 431.93 889.822 431.93 888.748ZM460.396 922C460.071 921.365 459.835 920.576 459.688 919.632C457.979 921.536 455.758 922.488 453.023 922.488C450.436 922.488 448.287 921.74 446.578 920.242C444.885 918.745 444.039 916.857 444.039 914.578C444.039 911.779 445.073 909.63 447.14 908.133C449.223 906.635 452.226 905.879 456.148 905.862H459.396V904.349C459.396 903.128 459.078 902.151 458.443 901.419C457.825 900.687 456.84 900.32 455.489 900.32C454.301 900.32 453.365 900.605 452.682 901.175C452.014 901.744 451.681 902.526 451.681 903.519H444.625C444.625 901.989 445.097 900.573 446.041 899.271C446.985 897.968 448.32 896.951 450.045 896.219C451.77 895.47 453.707 895.096 455.855 895.096C459.111 895.096 461.69 895.918 463.595 897.562C465.515 899.189 466.476 901.484 466.476 904.446V915.896C466.492 918.403 466.842 920.299 467.525 921.585V922H460.396ZM454.562 917.093C455.603 917.093 456.563 916.865 457.442 916.409C458.321 915.937 458.972 915.311 459.396 914.529V909.988H456.759C453.227 909.988 451.347 911.209 451.119 913.65L451.095 914.065C451.095 914.944 451.404 915.669 452.022 916.238C452.641 916.808 453.487 917.093 454.562 917.093ZM478.39 895.584L478.609 898.636C480.497 896.276 483.028 895.096 486.202 895.096C489.002 895.096 491.085 895.918 492.452 897.562C493.819 899.205 494.519 901.663 494.552 904.935V922H487.496V905.105C487.496 903.608 487.171 902.526 486.52 901.858C485.868 901.175 484.786 900.833 483.272 900.833C481.287 900.833 479.798 901.679 478.805 903.372V922H471.749V895.584H478.39ZM498.897 908.597C498.897 904.544 499.858 901.281 501.778 898.807C503.715 896.333 506.319 895.096 509.591 895.096C512.488 895.096 514.742 896.089 516.354 898.074L516.646 895.584H523.043V921.121C523.043 923.432 522.514 925.442 521.456 927.151C520.414 928.86 518.941 930.162 517.037 931.058C515.133 931.953 512.903 932.4 510.348 932.4C508.411 932.4 506.523 932.01 504.684 931.229C502.844 930.464 501.453 929.471 500.509 928.25L503.634 923.953C505.392 925.923 507.524 926.907 510.03 926.907C511.902 926.907 513.359 926.403 514.4 925.394C515.442 924.401 515.963 922.985 515.963 921.146V919.729C514.335 921.569 512.195 922.488 509.542 922.488C506.368 922.488 503.797 921.251 501.827 918.777C499.874 916.287 498.897 912.991 498.897 908.89V908.597ZM505.953 909.109C505.953 911.502 506.433 913.382 507.394 914.749C508.354 916.1 509.672 916.775 511.349 916.775C513.497 916.775 515.035 915.97 515.963 914.358V903.25C515.019 901.639 513.497 900.833 511.397 900.833C509.705 900.833 508.37 901.525 507.394 902.908C506.433 904.292 505.953 906.359 505.953 909.109ZM527.389 908.548C527.389 905.927 527.893 903.592 528.902 901.541C529.911 899.49 531.36 897.903 533.248 896.78C535.152 895.657 537.358 895.096 539.864 895.096C543.429 895.096 546.334 896.186 548.58 898.367C550.842 900.548 552.104 903.51 552.364 907.254L552.413 909.061C552.413 913.113 551.282 916.368 549.02 918.826C546.757 921.268 543.722 922.488 539.913 922.488C536.104 922.488 533.061 921.268 530.782 918.826C528.52 916.385 527.389 913.064 527.389 908.865V908.548ZM534.444 909.061C534.444 911.567 534.916 913.488 535.86 914.822C536.804 916.141 538.155 916.8 539.913 916.8C541.622 916.8 542.957 916.149 543.917 914.847C544.877 913.528 545.357 911.429 545.357 908.548C545.357 906.09 544.877 904.186 543.917 902.835C542.957 901.484 541.606 900.809 539.864 900.809C538.139 900.809 536.804 901.484 535.86 902.835C534.916 904.17 534.444 906.245 534.444 909.061ZM589.742 914.676H576.9L574.459 922H566.671L579.903 886.453H586.69L599.996 922H592.208L589.742 914.676ZM578.878 908.743H587.765L583.297 895.438L578.878 908.743ZM601.754 908.597C601.754 904.479 602.674 901.199 604.513 898.758C606.368 896.316 608.899 895.096 612.105 895.096C614.677 895.096 616.801 896.056 618.478 897.977V884.5H625.558V922H619.186L618.844 919.192C617.086 921.39 614.824 922.488 612.057 922.488C608.948 922.488 606.45 921.268 604.562 918.826C602.69 916.368 601.754 912.959 601.754 908.597ZM608.81 909.109C608.81 911.583 609.241 913.479 610.104 914.798C610.966 916.116 612.219 916.775 613.863 916.775C616.044 916.775 617.582 915.856 618.478 914.017V903.592C617.599 901.753 616.077 900.833 613.912 900.833C610.51 900.833 608.81 903.592 608.81 909.109ZM637.643 895.584L637.862 898.538C639.734 896.243 642.265 895.096 645.455 895.096C648.857 895.096 651.192 896.438 652.462 899.124C654.317 896.438 656.962 895.096 660.396 895.096C663.261 895.096 665.393 895.934 666.793 897.61C668.193 899.271 668.893 901.777 668.893 905.13V922H661.812V905.154C661.812 903.657 661.52 902.566 660.934 901.883C660.348 901.183 659.314 900.833 657.833 900.833C655.717 900.833 654.252 901.842 653.438 903.86L653.463 922H646.407V905.179C646.407 903.649 646.106 902.542 645.504 901.858C644.902 901.175 643.876 900.833 642.428 900.833C640.426 900.833 638.977 901.663 638.082 903.323V922H631.026V895.584H637.643ZM681.783 922H674.703V895.584H681.783V922ZM674.288 888.748C674.288 887.69 674.638 886.819 675.338 886.136C676.054 885.452 677.022 885.11 678.243 885.11C679.448 885.11 680.408 885.452 681.124 886.136C681.84 886.819 682.198 887.69 682.198 888.748C682.198 889.822 681.832 890.701 681.1 891.385C680.383 892.068 679.431 892.41 678.243 892.41C677.055 892.41 676.095 892.068 675.362 891.385C674.646 890.701 674.288 889.822 674.288 888.748ZM694.112 895.584L694.332 898.636C696.22 896.276 698.751 895.096 701.925 895.096C704.724 895.096 706.808 895.918 708.175 897.562C709.542 899.205 710.242 901.663 710.274 904.935V922H703.219V905.105C703.219 903.608 702.893 902.526 702.242 901.858C701.591 901.175 700.509 900.833 698.995 900.833C697.009 900.833 695.52 901.679 694.527 903.372V922H687.472V895.584H694.112ZM332.174 981V945.453H343.111C346.236 945.453 349.028 946.161 351.485 947.577C353.959 948.977 355.888 950.979 357.271 953.583C358.655 956.171 359.347 959.117 359.347 962.421V964.057C359.347 967.361 358.663 970.299 357.296 972.87C355.945 975.442 354.033 977.436 351.559 978.852C349.085 980.268 346.293 980.984 343.185 981H332.174ZM339.498 951.386V975.116H343.038C345.903 975.116 348.092 974.18 349.605 972.309C351.119 970.437 351.892 967.759 351.925 964.276V962.396C351.925 958.783 351.176 956.049 349.679 954.193C348.181 952.322 345.992 951.386 343.111 951.386H339.498ZM379.537 981C379.212 980.365 378.976 979.576 378.829 978.632C377.12 980.536 374.898 981.488 372.164 981.488C369.576 981.488 367.428 980.74 365.719 979.242C364.026 977.745 363.18 975.857 363.18 973.578C363.18 970.779 364.213 968.63 366.28 967.133C368.364 965.635 371.367 964.879 375.289 964.862H378.536V963.349C378.536 962.128 378.219 961.151 377.584 960.419C376.965 959.687 375.981 959.32 374.63 959.32C373.442 959.32 372.506 959.605 371.822 960.175C371.155 960.744 370.821 961.526 370.821 962.519H363.766C363.766 960.989 364.238 959.573 365.182 958.271C366.126 956.968 367.46 955.951 369.186 955.219C370.911 954.47 372.848 954.096 374.996 954.096C378.251 954.096 380.831 954.918 382.735 956.562C384.656 958.189 385.616 960.484 385.616 963.446V974.896C385.632 977.403 385.982 979.299 386.666 980.585V981H379.537ZM373.702 976.093C374.744 976.093 375.704 975.865 376.583 975.409C377.462 974.937 378.113 974.311 378.536 973.529V968.988H375.899C372.368 968.988 370.488 970.209 370.26 972.65L370.235 973.065C370.235 973.944 370.545 974.669 371.163 975.238C371.782 975.808 372.628 976.093 373.702 976.093ZM405.343 973.7C405.343 972.838 404.911 972.162 404.049 971.674C403.202 971.169 401.835 970.722 399.947 970.331C393.665 969.013 390.523 966.343 390.523 962.323C390.523 959.979 391.492 958.026 393.429 956.464C395.382 954.885 397.929 954.096 401.07 954.096C404.423 954.096 407.101 954.885 409.103 956.464C411.121 958.043 412.13 960.093 412.13 962.616H405.074C405.074 961.607 404.749 960.777 404.098 960.126C403.447 959.459 402.429 959.125 401.046 959.125C399.858 959.125 398.938 959.394 398.287 959.931C397.636 960.468 397.311 961.151 397.311 961.981C397.311 962.763 397.677 963.397 398.409 963.886C399.158 964.358 400.411 964.773 402.169 965.131C403.927 965.473 405.408 965.863 406.612 966.303C410.34 967.67 412.203 970.038 412.203 973.407C412.203 975.816 411.17 977.769 409.103 979.267C407.035 980.748 404.366 981.488 401.095 981.488C398.881 981.488 396.912 981.098 395.187 980.316C393.478 979.519 392.135 978.437 391.158 977.069C390.182 975.686 389.693 974.197 389.693 972.602H396.383C396.448 973.855 396.912 974.815 397.774 975.482C398.637 976.15 399.793 976.483 401.241 976.483C402.592 976.483 403.609 976.231 404.293 975.727C404.993 975.206 405.343 974.53 405.343 973.7ZM423.653 957.465C425.525 955.219 427.877 954.096 430.709 954.096C436.438 954.096 439.343 957.424 439.425 964.081V981H432.369V964.276C432.369 962.763 432.044 961.648 431.393 960.932C430.742 960.199 429.659 959.833 428.146 959.833C426.078 959.833 424.581 960.631 423.653 962.226V981H416.598V943.5H423.653V957.465ZM468.551 968.036C468.551 972.268 467.647 975.572 465.841 977.948C464.034 980.308 461.511 981.488 458.272 981.488C455.408 981.488 453.121 980.39 451.412 978.192L451.095 981H444.747V943.5H451.803V956.952C453.43 955.048 455.571 954.096 458.224 954.096C461.446 954.096 463.969 955.284 465.792 957.66C467.631 960.02 468.551 963.349 468.551 967.646V968.036ZM461.495 967.523C461.495 964.854 461.072 962.909 460.226 961.688C459.379 960.451 458.118 959.833 456.441 959.833C454.195 959.833 452.649 960.753 451.803 962.592V973.017C452.665 974.872 454.228 975.8 456.49 975.8C458.769 975.8 460.266 974.677 460.982 972.431C461.324 971.356 461.495 969.721 461.495 967.523ZM471.822 967.548C471.822 964.927 472.327 962.592 473.336 960.541C474.345 958.49 475.794 956.903 477.682 955.78C479.586 954.657 481.791 954.096 484.298 954.096C487.862 954.096 490.768 955.186 493.014 957.367C495.276 959.548 496.537 962.51 496.798 966.254L496.847 968.061C496.847 972.113 495.715 975.368 493.453 977.826C491.191 980.268 488.155 981.488 484.347 981.488C480.538 981.488 477.494 980.268 475.216 977.826C472.953 975.385 471.822 972.064 471.822 967.865V967.548ZM478.878 968.061C478.878 970.567 479.35 972.488 480.294 973.822C481.238 975.141 482.589 975.8 484.347 975.8C486.056 975.8 487.39 975.149 488.351 973.847C489.311 972.528 489.791 970.429 489.791 967.548C489.791 965.09 489.311 963.186 488.351 961.835C487.39 960.484 486.039 959.809 484.298 959.809C482.573 959.809 481.238 960.484 480.294 961.835C479.35 963.17 478.878 965.245 478.878 968.061ZM516.5 981C516.174 980.365 515.938 979.576 515.792 978.632C514.083 980.536 511.861 981.488 509.127 981.488C506.539 981.488 504.391 980.74 502.682 979.242C500.989 977.745 500.143 975.857 500.143 973.578C500.143 970.779 501.176 968.63 503.243 967.133C505.326 965.635 508.329 964.879 512.252 964.862H515.499V963.349C515.499 962.128 515.182 961.151 514.547 960.419C513.928 959.687 512.944 959.32 511.593 959.32C510.405 959.32 509.469 959.605 508.785 960.175C508.118 960.744 507.784 961.526 507.784 962.519H500.729C500.729 960.989 501.201 959.573 502.145 958.271C503.089 956.968 504.423 955.951 506.148 955.219C507.874 954.47 509.811 954.096 511.959 954.096C515.214 954.096 517.794 954.918 519.698 956.562C521.619 958.189 522.579 960.484 522.579 963.446V974.896C522.595 977.403 522.945 979.299 523.629 980.585V981H516.5ZM510.665 976.093C511.707 976.093 512.667 975.865 513.546 975.409C514.425 974.937 515.076 974.311 515.499 973.529V968.988H512.862C509.33 968.988 507.451 970.209 507.223 972.65L507.198 973.065C507.198 973.944 507.507 974.669 508.126 975.238C508.744 975.808 509.591 976.093 510.665 976.093ZM542.843 961.2C541.882 961.07 541.036 961.005 540.304 961.005C537.634 961.005 535.885 961.908 535.055 963.715V981H527.999V954.584H534.664L534.859 957.733C536.275 955.308 538.237 954.096 540.743 954.096C541.524 954.096 542.257 954.201 542.94 954.413L542.843 961.2ZM544.674 967.597C544.674 963.479 545.593 960.199 547.433 957.758C549.288 955.316 551.819 954.096 555.025 954.096C557.597 954.096 559.721 955.056 561.397 956.977V943.5H568.478V981H562.105L561.764 978.192C560.006 980.39 557.743 981.488 554.977 981.488C551.868 981.488 549.369 980.268 547.481 977.826C545.61 975.368 544.674 971.959 544.674 967.597ZM551.729 968.109C551.729 970.583 552.161 972.479 553.023 973.798C553.886 975.116 555.139 975.775 556.783 975.775C558.964 975.775 560.502 974.856 561.397 973.017V962.592C560.519 960.753 558.997 959.833 556.832 959.833C553.43 959.833 551.729 962.592 551.729 968.109Z" fill="url(#paint2_linear)"/>
</g>
</g>
</g>
<defs>
<filter id="filter0_bd" x="-6" y="-10" width="946" height="1044" filterUnits="userSpaceOnUse" color-interpolation-filters="sRGB">
<feFlood flood-opacity="0" result="BackgroundImageFix"/>
<feGaussianBlur in="BackgroundImage" stdDeviation="5"/>
<feComposite in2="SourceAlpha" operator="in" result="effect1_backgroundBlur"/>
<feColorMatrix in="SourceAlpha" type="matrix" values="0 0 0 0 0 0 0 0 0 0 0 0 0 0 0 0 0 0 127 0" result="hardAlpha"/>
<feOffset dy="4"/>
<feGaussianBlur stdDeviation="2"/>
<feColorMatrix type="matrix" values="0 0 0 0 0 0 0 0 0 0 0 0 0 0 0 0 0 0 0.25 0"/>
<feBlend mode="normal" in2="effect1_backgroundBlur" result="effect2_dropShadow"/>
<feBlend mode="normal" in="SourceGraphic" in2="effect2_dropShadow" result="shape"/>
</filter>
<filter id="filter1_d" x="4" y="-3" width="928" height="1040" filterUnits="userSpaceOnUse" color-interpolation-filters="sRGB">
<feFlood flood-opacity="0" result="BackgroundImageFix"/>
<feColorMatrix in="SourceAlpha" type="matrix" values="0 0 0 0 0 0 0 0 0 0 0 0 0 0 0 0 0 0 127 0" result="hardAlpha"/>
<feOffset dx="10" dy="5"/>
<feGaussianBlur stdDeviation="4"/>
<feColorMatrix type="matrix" values="0 0 0 0 0 0 0 0 0 0 0 0 0 0 0 0 0 0 0.3 0"/>
<feBlend mode="normal" in2="BackgroundImageFix" result="effect1_dropShadow"/>
<feBlend mode="normal" in="SourceGraphic" in2="effect1_dropShadow" result="shape"/>
</filter>
<filter id="filter2_d" x="329.977" y="883.5" width="394.298" height="108.988" filterUnits="userSpaceOnUse" color-interpolation-filters="sRGB">
<feFlood flood-opacity="0" result="BackgroundImageFix"/>
<feColorMatrix in="SourceAlpha" type="matrix" values="0 0 0 0 0 0 0 0 0 0 0 0 0 0 0 0 0 0 127 0" result="hardAlpha"/>
<feOffset dx="8" dy="5"/>
<feGaussianBlur stdDeviation="3"/>
<feColorMatrix type="matrix" values="0 0 0 0 0 0 0 0 0 0 0 0 0 0 0 0 0 0 0.1 0"/>
<feBlend mode="screen" in2="BackgroundImageFix" result="effect1_dropShadow"/>
<feBlend mode="normal" in="SourceGraphic" in2="effect1_dropShadow" result="shape"/>
</filter>
<linearGradient id="paint0_linear" x1="459" y1="0" x2="459" y2="1024" gradientUnits="userSpaceOnUse">
<stop stop-color="#58D2DA"/>
<stop offset="1" stop-color="white" stop-opacity="0"/>
</linearGradient>
<linearGradient id="paint1_linear" x1="1070.5" y1="1363" x2="338.208" y2="870.518" gradientUnits="userSpaceOnUse">
<stop stop-color="#F4F900"/>
<stop offset="0.755208" stop-color="#FB0606"/>
</linearGradient>
<linearGradient id="paint2_linear" x1="461.5" y1="866" x2="524" y2="1024" gradientUnits="userSpaceOnUse">
<stop stop-color="#0720FF"/>
<stop offset="1" stop-color="white" stop-opacity="0.26"/>
</linearGradient>
<clipPath id="clip0">
<rect width="926" height="1024" fill="white" transform="translate(4)"/>
</clipPath>
</defs>
</svg>
